
<svg version="1.0" xmlns="http://www.w3.org/2000/svg"
 width="500.000000pt" height="500.000000pt" viewBox="0 0 500.000000 500.000000"
 preserveAspectRatio="xMidYMid meet">

<g transform="translate(0.000000,500.000000) scale(0.100000,-0.100000)"
fill="#000000" stroke="none">
<path d="M0 2500 l0 -2500 2500 0 2500 0 0 2500 0 2500 -2500 0 -2500 0 0
-2500z m1333 1554 c94 -186 283 -443 482 -654 59 -63 135 -151 168 -195 56
-75 122 -194 112 -203 -7 -8 -210 176 -282 255 -263 293 -443 589 -544 896
-35 106 -37 136 -5 52 13 -33 44 -101 69 -151z m-94 121 c37 -149 147 -387
261 -559 141 -215 309 -396 565 -612 122 -103 509 -473 502 -480 -2 -3 -35 9
-73 25 -97 41 -207 55 -388 48 -211 -8 -342 -43 -580 -155 l-104 -50 -41 -87
c-23 -48 -41 -89 -41 -92 0 -8 197 42 320 82 189 62 315 88 430 89 96 1 110
-1 162 -27 62 -31 140 -108 157 -158 l11 -31 -37 33 c-52 45 -146 86 -225 99
-87 13 -151 3 -350 -55 -298 -88 -419 -116 -522 -122 l-99 -6 24 40 c117 194
435 710 437 708 1 -1 -38 -85 -87 -186 -49 -101 -85 -185 -82 -187 9 -3 137
36 267 81 174 62 413 83 584 53 41 -8 77 -12 78 -11 2 2 -50 57 -115 123 -98
99 -131 125 -194 156 -68 33 -90 39 -210 51 -74 7 -147 18 -162 24 -30 12
-166 110 -187 136 -16 20 -5 19 65 -5 32 -11 61 -20 64 -20 3 0 -43 28 -102
61 -78 44 -116 72 -138 101 -43 60 -112 191 -152 288 -36 87 -72 218 -63 227
2 3 31 -13 63 -34 81 -55 95 -61 48 -22 -22 19 -60 52 -85 75 l-45 42 -3 111
c-4 115 15 319 28 304 4 -4 13 -30 19 -58z m1536 -681 c14 -11 16 -18 7 -21
-6 -3 -10 -9 -6 -14 3 -5 -2 -9 -10 -9 -9 0 -16 -6 -16 -12 -1 -8 -6 -6 -14 4
-7 10 -16 15 -20 11 -3 -4 -5 4 -4 18 3 20 18 36 38 38 3 0 14 -7 25 -15z
m-238 -100 c-6 -34 -5 -35 12 -20 25 23 38 20 16 -4 -20 -22 -14 -26 15 -10
10 6 21 6 24 1 3 -4 -7 -14 -22 -21 l-27 -14 25 -4 c14 -2 30 -8 35 -14 7 -7
-2 -8 -30 -4 l-40 7 29 -26 c15 -14 26 -29 22 -32 -3 -4 -17 4 -31 17 -26 24
-33 14 -15 -21 8 -13 7 -19 0 -19 -6 0 -16 12 -22 28 l-12 27 -4 -30 c-5 -44
-22 -56 -22 -15 0 32 0 33 -20 15 -24 -22 -26 -13 -4 21 l17 25 -28 -11 c-38
-14 -43 -5 -8 14 l28 15 -27 1 c-16 0 -28 5 -28 10 0 6 12 10 27 10 25 0 26 0
8 20 -10 11 -16 22 -13 25 3 3 11 -1 18 -10 19 -23 31 -18 25 13 -6 25 -5 25
8 10 18 -23 27 -23 27 0 0 18 8 32 18 32 3 0 2 -16 -1 -36z m540 -2 c0 -25
-15 -41 -36 -35 -20 5 -24 31 -7 49 14 15 43 6 43 -14z m-312 -42 c17 0 8 -37
-11 -44 -8 -3 -14 -1 -14 4 0 6 -7 10 -15 10 -9 0 -12 6 -8 18 8 21 27 35 31
22 2 -6 10 -10 17 -10z m105 16 c0 -3 -4 -8 -10 -11 -5 -3 -10 -1 -10 4 0 6 5
11 10 11 6 0 10 -2 10 -4z m374 -51 c6 -17 -17 -37 -36 -30 -17 7 -20 37 -5
47 13 8 34 0 41 -17z m-229 -45 c16 0 9 -36 -9 -43 -17 -7 -43 15 -43 36 0 9
6 17 14 17 7 0 14 6 14 13 1 6 3 4 6 -5 2 -10 10 -18 18 -18z m-250 -92 l7
-33 9 33 c12 40 23 42 17 2 -5 -33 6 -40 21 -13 5 10 13 14 17 10 4 -4 -3 -19
-17 -33 l-24 -26 23 6 c12 3 31 9 42 12 32 9 23 -6 -12 -21 l-33 -13 28 -11
c37 -14 34 -24 -5 -16 -32 7 -33 7 -15 -12 26 -30 20 -40 -8 -13 -28 27 -28
27 -16 -18 6 -19 6 -32 0 -32 -5 0 -11 11 -15 25 -7 30 -24 33 -24 5 0 -11 -5
-20 -11 -20 -7 0 -9 10 -4 27 6 27 6 27 -14 9 -29 -26 -36 -15 -11 17 l21 26
-36 -6 c-23 -4 -35 -2 -35 6 0 6 12 11 28 12 l27 1 -27 10 c-16 5 -28 14 -28
19 0 11 3 11 37 -2 l28 -10 -23 23 c-33 36 -27 43 13 13 l34 -27 -9 34 c-12
41 -12 48 -1 48 5 0 12 -15 16 -32z m356 -16 c0 -34 1 -35 10 -13 14 35 23 17
10 -20 -15 -44 -9 -46 23 -4 15 19 32 35 37 35 6 0 -2 -16 -17 -35 -29 -39
-27 -42 17 -19 47 24 59 10 14 -15 l-40 -22 48 4 c67 6 59 -10 -10 -19 l-58
-7 45 -15 c49 -16 56 -20 49 -27 -3 -2 -20 0 -39 5 l-33 9 23 -24 c13 -14 21
-27 18 -30 -2 -3 -15 6 -28 20 -31 33 -47 32 -26 -1 10 -14 16 -30 14 -36 -2
-6 -14 4 -26 23 l-22 34 0 -54 c0 -64 -8 -62 -19 6 l-8 48 -8 -33 c-10 -45
-30 -56 -21 -12 l6 34 -25 -24 c-33 -31 -32 -16 1 27 l26 35 -41 -21 c-45 -23
-51 -25 -51 -13 0 5 19 18 42 28 l43 19 -45 6 c-39 5 -42 7 -21 14 l23 8 -23
14 -24 14 25 -4 c14 -3 34 -8 45 -12 16 -5 14 -1 -7 19 -16 14 -28 31 -28 37
0 7 14 0 31 -17 l31 -29 -17 33 c-22 45 -13 51 14 10 l21 -33 0 53 c0 60 20
64 21 4z m-521 -36 c0 -3 -4 -8 -10 -11 -5 -3 -10 -1 -10 4 0 6 5 11 10 11 6
0 10 -2 10 -4z m-141 -53 c-14 -63 -10 -69 20 -33 16 19 32 32 36 29 3 -4 -8
-23 -25 -43 -36 -41 -35 -42 20 -20 50 20 67 10 19 -10 l-34 -15 30 -1 c23 0
27 -3 15 -10 -8 -5 -26 -10 -40 -11 -15 -1 -6 -5 23 -11 26 -6 47 -14 47 -19
0 -11 -5 -11 -52 0 -45 11 -48 4 -10 -25 15 -12 24 -25 21 -29 -4 -3 -23 8
-43 25 l-35 31 15 -46 c19 -54 12 -72 -10 -24 -14 34 -14 34 -15 7 -1 -42 -21
-33 -22 10 l-1 37 -11 -42 c-24 -86 -33 -59 -11 32 4 14 -3 10 -25 -15 -17
-19 -31 -30 -31 -23 0 6 12 25 26 42 30 36 29 36 -21 15 -48 -20 -71 -12 -25
9 l35 15 -32 1 c-40 1 -44 21 -5 22 27 1 27 1 -5 11 -18 6 -33 15 -33 20 0 8
35 3 79 -14 37 -14 35 -3 -6 31 -21 17 -31 31 -23 31 8 0 27 -12 42 -27 32
-30 35 -22 13 30 -17 42 -18 47 -6 47 5 0 12 -12 16 -27 7 -25 8 -26 14 -9 7
18 8 18 15 -5 8 -25 10 -22 20 24 4 15 10 27 15 27 5 0 5 -16 0 -37z m911
-153 c13 0 17 -5 13 -19 -6 -22 -36 -38 -41 -22 -2 6 -8 9 -12 6 -13 -8 -8 39
5 47 5 4 12 3 13 -2 2 -6 12 -10 22 -10z m-642 -19 c-2 -9 -9 -22 -15 -29 -20
-21 -48 10 -34 37 13 23 53 17 49 -8z m200 15 c1 -2 0 -10 -4 -19 -7 -19 -37
-32 -42 -18 -2 6 -11 11 -20 12 -11 0 -12 2 -4 6 6 2 12 11 12 18 0 9 9 12 27
9 15 -3 29 -7 31 -8z m322 -46 c0 -20 -17 -30 -37 -22 -16 5 -17 24 -2 39 16
16 39 5 39 -17z m345 -370 c120 -195 220 -361 223 -369 4 -12 -10 -13 -89 -8
-108 6 -190 24 -466 106 -251 74 -317 86 -407 71 -71 -11 -166 -52 -223 -96
-42 -32 -42 -19 0 42 120 174 300 183 757 39 121 -38 280 -79 286 -73 1 2 -67
147 -152 322 -140 290 -162 338 -150 325 2 -2 102 -164 221 -359z m-277 271
c17 -11 11 -34 -11 -43 -25 -11 -48 13 -35 35 10 19 26 21 46 8z m-1115 -546
c62 -16 177 -70 177 -83 0 -21 -17 -19 -73 9 -78 40 -186 62 -259 54 -31 -3
-115 -23 -186 -45 -125 -37 -341 -85 -349 -76 -2 2 38 14 89 26 51 13 158 44
238 71 80 26 154 50 165 52 44 10 144 6 198 -8z m957 -38 c74 -26 176 -57 225
-71 50 -13 82 -25 72 -25 -30 -2 -206 39 -320 75 -61 18 -136 36 -166 40 -72
7 -188 -17 -263 -55 -38 -19 -60 -26 -64 -19 -9 14 17 34 76 61 80 36 132 46
220 43 70 -2 108 -11 220 -49z m-926 -50 c34 -10 19 -12 -110 -12 -82 0 -174
-3 -204 -7 -67 -9 -55 -2 31 17 78 16 230 18 283 2z m866 -11 l45 -15 -55 7
c-30 4 -120 7 -199 7 -129 0 -140 1 -105 12 52 17 254 10 314 -11z m-764 -86
c102 -93 245 -89 359 11 l35 31 122 0 c151 -1 297 -22 489 -71 l146 -37 103
48 c57 27 104 47 106 45 9 -9 -192 -177 -211 -177 -12 0 -44 7 -71 15 -158 48
-441 95 -570 95 l-86 0 -46 -40 c-61 -54 -131 -74 -232 -67 -86 5 -139 28
-189 78 l-32 32 -127 -6 c-133 -6 -331 -39 -490 -82 -51 -14 -103 -25 -115
-25 -14 1 -59 35 -117 90 -101 96 -99 97 39 33 l84 -40 81 24 c201 59 458 95
606 85 70 -5 78 -8 116 -42z m1177 43 c-7 -2 -19 -2 -25 0 -7 3 -2 5 12 5 14
0 19 -2 13 -5z m-1603 -285 c25 -13 55 -39 68 -58 20 -30 23 -45 20 -102 -6
-109 -63 -163 -173 -163 -113 0 -181 73 -173 185 5 69 35 115 92 141 55 25
112 24 166 -3z m386 3 c58 -26 87 -72 92 -142 8 -110 -61 -184 -173 -184 -67
0 -114 21 -148 68 -28 36 -36 142 -14 183 44 84 150 117 243 75z m652 3 c16
-11 22 -25 22 -54 0 -42 -9 -54 -34 -44 -14 5 -14 8 0 29 29 45 -25 91 -72 60
-36 -24 -31 -62 13 -99 119 -101 136 -134 93 -189 -41 -52 -140 -42 -165 17
-24 56 0 108 41 92 15 -6 15 -8 1 -24 -39 -43 -14 -102 43 -102 37 0 60 24 60
62 0 26 -13 43 -72 98 -61 57 -71 72 -71 100 0 22 7 39 22 52 28 22 89 24 119
2z m526 -33 c-5 -38 0 -73 25 -160 17 -61 31 -116 31 -121 0 -6 -14 -10 -30
-10 l-30 0 6 55 7 55 -46 0 c-52 0 -58 -9 -50 -69 5 -39 4 -41 -21 -41 -31 0
-30 -3 -12 48 8 22 24 88 36 148 29 150 27 144 61 144 l30 0 -7 -49z m-1910
18 c35 -27 35 -70 1 -97 -25 -20 -25 -21 -6 -27 30 -9 61 -54 61 -86 0 -17
-11 -41 -29 -61 -26 -30 -35 -33 -100 -36 l-72 -4 8 43 c10 56 10 191 0 247
l-7 42 59 0 c44 0 65 -5 85 -21z m922 -1 c-3 -13 -9 -48 -12 -78 l-7 -55 28
25 c34 31 55 71 55 105 0 21 4 25 31 25 l31 0 -17 -27 c-10 -16 -30 -44 -45
-63 l-28 -35 54 -99 c30 -54 54 -101 54 -102 0 -2 -16 -4 -35 -4 -34 0 -35 1
-35 38 0 37 -44 142 -60 142 -30 0 -37 -73 -14 -157 6 -20 3 -23 -25 -23 l-31
0 7 58 c5 31 8 80 8 107 0 28 -3 76 -8 108 l-7 57 31 0 c28 0 31 -3 25 -22z
m589 -19 c-5 -30 0 -69 21 -147 l29 -107 12 65 c16 85 20 157 10 198 -8 31 -8
32 23 32 31 0 31 0 25 -43 -5 -32 1 -71 21 -148 l29 -104 13 65 c7 36 14 102
15 148 1 78 2 82 24 82 27 0 27 3 9 -46 -7 -22 -21 -86 -30 -144 -24 -143 -23
-140 -56 -140 -29 0 -30 1 -24 44 6 44 -12 146 -25 146 -4 0 -13 -36 -20 -81
-16 -105 -18 -109 -52 -109 -28 0 -28 1 -22 48 4 37 -2 76 -26 161 -17 61 -31
114 -31 116 0 3 14 5 31 5 30 0 31 0 24 -41z m646 13 c26 -23 33 -38 37 -80 4
-48 2 -54 -30 -86 -24 -24 -48 -37 -77 -42 -44 -7 -46 -11 -32 -62 9 -32 9
-32 -24 -32 -34 0 -34 1 -27 33 9 43 9 235 -1 270 l-7 27 65 0 c57 0 68 -3 96
-28z"/>
<path d="M1744 1781 c-81 -49 -83 -174 -4 -253 32 -32 44 -38 81 -38 88 0 149
60 149 145 -1 56 -32 121 -72 145 -42 26 -113 26 -154 1z"/>
<path d="M2133 1780 c-64 -39 -81 -126 -42 -208 30 -61 70 -84 137 -79 61 4
104 38 123 94 21 64 -17 170 -71 198 -41 21 -108 19 -147 -5z"/>
<path d="M3406 1698 c-9 -46 -16 -86 -16 -90 0 -5 18 -8 40 -8 22 0 40 4 40
10 0 11 -41 163 -45 168 -1 1 -10 -35 -19 -80z"/>
<path d="M1476 1789 c-2 -8 -7 -36 -10 -63 l-6 -48 33 6 c32 6 67 37 67 60 0
35 -75 74 -84 45z"/>
<path d="M1465 1660 c-8 -13 3 -141 15 -159 11 -18 76 3 90 29 18 33 12 85
-12 107 -28 25 -83 39 -93 23z"/>
<path d="M3616 1784 c-3 -9 -6 -56 -6 -105 l0 -89 30 0 c68 0 106 92 68 166
-18 38 -81 57 -92 28z"/>
</g>
</svg>
