<svg xmlns="http://www.w3.org/2000/svg" xmlns:xlink="http://www.w3.org/1999/xlink" version="1.1" x="0px" y="0px" viewBox="0 0 100 125" enable-background="new 0 0 100 100" xml:space="preserve"><path d="M50,17.833c-14.245,0-25.834,11.589-25.834,25.834c0,22.069,24.006,37.614,25.028,38.265  c0.246,0.157,0.525,0.235,0.806,0.235c0.292,0,0.583-0.085,0.836-0.254c1.021-0.685,24.998-17.023,24.998-38.246  C75.834,29.422,64.245,17.833,50,17.833z M49.979,78.842c-4.186-2.919-22.813-16.939-22.813-35.175  c0-12.591,10.243-22.834,22.834-22.834s22.834,10.243,22.834,22.834C72.834,61.183,54.146,75.801,49.979,78.842z M50,32.333  c-5.697,0-10.333,4.636-10.333,10.333S44.303,53,50,53s10.333-4.635,10.333-10.333S55.697,32.333,50,32.333z M50,50  c-4.043,0-7.333-3.29-7.333-7.333c0-4.044,3.29-7.333,7.333-7.333s7.333,3.29,7.333,7.333C57.333,46.71,54.043,50,50,50z"/><text x="0" y="115" fill="#000000" font-size="5px" font-weight="bold" font-family="'Helvetica Neue', Helvetica, Arial-Unicode, Arial, Sans-serif">Created by amante de icono</text><text x="0" y="120" fill="#000000" font-size="5px" font-weight="bold" font-family="'Helvetica Neue', Helvetica, Arial-Unicode, Arial, Sans-serif">from the Noun Project</text></svg>